<mxfile host="app.diagrams.net" modified="2022-03-23T07:03:24.252Z" agent="5.0 (Windows NT 10.0; Win64; x64) AppleWebKit/537.36 (KHTML, like Gecko) Chrome/99.0.4844.82 Safari/537.36" etag="RKKqssR_AXVCR_hDwzZu" version="17.1.3" type="github">
  <diagram id="s3qPAXkaXY5K9O0UNoI1" name="Page-1">
    <mxGraphModel dx="1384" dy="719" grid="1" gridSize="10" guides="1" tooltips="1" connect="1" arrows="1" fold="1" page="1" pageScale="1" pageWidth="850" pageHeight="1100" math="0" shadow="0">
      <root>
        <mxCell id="0" />
        <mxCell id="1" parent="0" />
        <mxCell id="Jr7MtHPWvmLCkRy1PGtH-1" value="" style="swimlane;startSize=0;" vertex="1" parent="1">
          <mxGeometry x="320" y="120" width="200" height="720" as="geometry" />
        </mxCell>
        <mxCell id="Jr7MtHPWvmLCkRy1PGtH-2" value="Check Balance" style="ellipse;whiteSpace=wrap;html=1;fontSize=18;" vertex="1" parent="Jr7MtHPWvmLCkRy1PGtH-1">
          <mxGeometry x="30" y="10" width="140" height="70" as="geometry" />
        </mxCell>
        <mxCell id="Jr7MtHPWvmLCkRy1PGtH-3" value="Deposit Money" style="ellipse;whiteSpace=wrap;html=1;fontSize=18;" vertex="1" parent="Jr7MtHPWvmLCkRy1PGtH-1">
          <mxGeometry x="30" y="100" width="140" height="70" as="geometry" />
        </mxCell>
        <mxCell id="Jr7MtHPWvmLCkRy1PGtH-4" value="Online Banking&amp;nbsp;" style="ellipse;whiteSpace=wrap;html=1;fontSize=18;" vertex="1" parent="Jr7MtHPWvmLCkRy1PGtH-1">
          <mxGeometry x="30" y="190" width="140" height="70" as="geometry" />
        </mxCell>
        <mxCell id="Jr7MtHPWvmLCkRy1PGtH-5" value="Withdraw cash" style="ellipse;whiteSpace=wrap;html=1;fontSize=18;" vertex="1" parent="Jr7MtHPWvmLCkRy1PGtH-1">
          <mxGeometry x="30" y="280" width="140" height="70" as="geometry" />
        </mxCell>
        <mxCell id="Jr7MtHPWvmLCkRy1PGtH-6" value="Transfer Money" style="ellipse;whiteSpace=wrap;html=1;fontSize=18;" vertex="1" parent="Jr7MtHPWvmLCkRy1PGtH-1">
          <mxGeometry x="30" y="370" width="140" height="70" as="geometry" />
        </mxCell>
        <mxCell id="Jr7MtHPWvmLCkRy1PGtH-7" value="Record Mintainance" style="ellipse;whiteSpace=wrap;html=1;fontSize=18;" vertex="1" parent="Jr7MtHPWvmLCkRy1PGtH-1">
          <mxGeometry x="30" y="460" width="140" height="70" as="geometry" />
        </mxCell>
        <mxCell id="Jr7MtHPWvmLCkRy1PGtH-8" value="" style="endArrow=none;html=1;rounded=0;exitX=1;exitY=0.5;exitDx=0;exitDy=0;" edge="1" parent="Jr7MtHPWvmLCkRy1PGtH-1" source="Jr7MtHPWvmLCkRy1PGtH-3">
          <mxGeometry relative="1" as="geometry">
            <mxPoint x="180" y="200" as="sourcePoint" />
            <mxPoint x="360" y="340" as="targetPoint" />
          </mxGeometry>
        </mxCell>
        <mxCell id="Jr7MtHPWvmLCkRy1PGtH-9" value="" style="endArrow=none;html=1;rounded=0;exitX=1;exitY=0.5;exitDx=0;exitDy=0;" edge="1" parent="Jr7MtHPWvmLCkRy1PGtH-1" source="Jr7MtHPWvmLCkRy1PGtH-4">
          <mxGeometry relative="1" as="geometry">
            <mxPoint x="180" y="210" as="sourcePoint" />
            <mxPoint x="360" y="340" as="targetPoint" />
          </mxGeometry>
        </mxCell>
        <mxCell id="Jr7MtHPWvmLCkRy1PGtH-10" value="" style="endArrow=none;html=1;rounded=0;" edge="1" parent="Jr7MtHPWvmLCkRy1PGtH-1">
          <mxGeometry relative="1" as="geometry">
            <mxPoint x="170" y="40" as="sourcePoint" />
            <mxPoint x="360" y="340" as="targetPoint" />
          </mxGeometry>
        </mxCell>
        <mxCell id="Jr7MtHPWvmLCkRy1PGtH-11" value="" style="endArrow=none;html=1;rounded=0;" edge="1" parent="Jr7MtHPWvmLCkRy1PGtH-1">
          <mxGeometry relative="1" as="geometry">
            <mxPoint x="170" y="310" as="sourcePoint" />
            <mxPoint x="350" y="340" as="targetPoint" />
          </mxGeometry>
        </mxCell>
        <mxCell id="Jr7MtHPWvmLCkRy1PGtH-12" value="" style="endArrow=none;html=1;rounded=0;" edge="1" parent="Jr7MtHPWvmLCkRy1PGtH-1">
          <mxGeometry relative="1" as="geometry">
            <mxPoint x="170" y="400" as="sourcePoint" />
            <mxPoint x="360" y="340" as="targetPoint" />
          </mxGeometry>
        </mxCell>
        <mxCell id="Jr7MtHPWvmLCkRy1PGtH-13" value="" style="endArrow=none;html=1;rounded=0;" edge="1" parent="Jr7MtHPWvmLCkRy1PGtH-1">
          <mxGeometry relative="1" as="geometry">
            <mxPoint x="170" y="490" as="sourcePoint" />
            <mxPoint x="360" y="340" as="targetPoint" />
          </mxGeometry>
        </mxCell>
        <mxCell id="Jr7MtHPWvmLCkRy1PGtH-21" value="Repair" style="ellipse;whiteSpace=wrap;html=1;fontSize=18;" vertex="1" parent="Jr7MtHPWvmLCkRy1PGtH-1">
          <mxGeometry x="30" y="550" width="140" height="70" as="geometry" />
        </mxCell>
        <mxCell id="Jr7MtHPWvmLCkRy1PGtH-22" value="Online Server Maintainance" style="ellipse;whiteSpace=wrap;html=1;fontSize=18;" vertex="1" parent="Jr7MtHPWvmLCkRy1PGtH-1">
          <mxGeometry x="30" y="640" width="140" height="70" as="geometry" />
        </mxCell>
        <mxCell id="Jr7MtHPWvmLCkRy1PGtH-29" value="" style="endArrow=none;html=1;rounded=0;" edge="1" parent="Jr7MtHPWvmLCkRy1PGtH-1">
          <mxGeometry relative="1" as="geometry">
            <mxPoint x="170" y="670" as="sourcePoint" />
            <mxPoint x="360" y="340" as="targetPoint" />
          </mxGeometry>
        </mxCell>
        <mxCell id="Jr7MtHPWvmLCkRy1PGtH-14" value="Customer" style="shape=umlActor;verticalLabelPosition=bottom;verticalAlign=top;html=1;fontSize=27;" vertex="1" parent="1">
          <mxGeometry x="100" y="130" width="70" height="150" as="geometry" />
        </mxCell>
        <mxCell id="Jr7MtHPWvmLCkRy1PGtH-16" value="" style="endArrow=none;html=1;rounded=0;entryX=0;entryY=0.5;entryDx=0;entryDy=0;" edge="1" parent="1" target="Jr7MtHPWvmLCkRy1PGtH-2">
          <mxGeometry relative="1" as="geometry">
            <mxPoint x="190" y="220" as="sourcePoint" />
            <mxPoint x="320" y="390" as="targetPoint" />
          </mxGeometry>
        </mxCell>
        <mxCell id="Jr7MtHPWvmLCkRy1PGtH-17" value="" style="endArrow=none;html=1;rounded=0;entryX=0;entryY=0.5;entryDx=0;entryDy=0;" edge="1" parent="1" target="Jr7MtHPWvmLCkRy1PGtH-5">
          <mxGeometry relative="1" as="geometry">
            <mxPoint x="190" y="220" as="sourcePoint" />
            <mxPoint x="300" y="340" as="targetPoint" />
          </mxGeometry>
        </mxCell>
        <mxCell id="Jr7MtHPWvmLCkRy1PGtH-18" value="" style="endArrow=none;html=1;rounded=0;entryX=0;entryY=0.5;entryDx=0;entryDy=0;" edge="1" parent="1" target="Jr7MtHPWvmLCkRy1PGtH-6">
          <mxGeometry relative="1" as="geometry">
            <mxPoint x="190" y="220" as="sourcePoint" />
            <mxPoint x="290" y="350" as="targetPoint" />
          </mxGeometry>
        </mxCell>
        <mxCell id="Jr7MtHPWvmLCkRy1PGtH-20" value="ATM Technitian" style="shape=umlActor;verticalLabelPosition=bottom;verticalAlign=top;html=1;fontSize=21;" vertex="1" parent="1">
          <mxGeometry x="100" y="620" width="70" height="145" as="geometry" />
        </mxCell>
        <mxCell id="Jr7MtHPWvmLCkRy1PGtH-23" value="" style="endArrow=none;html=1;rounded=0;entryX=0;entryY=0.5;entryDx=0;entryDy=0;" edge="1" parent="1" target="Jr7MtHPWvmLCkRy1PGtH-3">
          <mxGeometry relative="1" as="geometry">
            <mxPoint x="190" y="220" as="sourcePoint" />
            <mxPoint x="350" y="220" as="targetPoint" />
          </mxGeometry>
        </mxCell>
        <mxCell id="Jr7MtHPWvmLCkRy1PGtH-24" value="" style="endArrow=none;html=1;rounded=0;entryX=0;entryY=0.5;entryDx=0;entryDy=0;" edge="1" parent="1" target="Jr7MtHPWvmLCkRy1PGtH-4">
          <mxGeometry relative="1" as="geometry">
            <mxPoint x="190" y="220" as="sourcePoint" />
            <mxPoint x="350" y="220" as="targetPoint" />
          </mxGeometry>
        </mxCell>
        <mxCell id="Jr7MtHPWvmLCkRy1PGtH-25" value="" style="endArrow=none;html=1;rounded=0;entryX=0;entryY=0.5;entryDx=0;entryDy=0;" edge="1" parent="1" target="Jr7MtHPWvmLCkRy1PGtH-7">
          <mxGeometry relative="1" as="geometry">
            <mxPoint x="200" y="670" as="sourcePoint" />
            <mxPoint x="360" y="670" as="targetPoint" />
          </mxGeometry>
        </mxCell>
        <mxCell id="Jr7MtHPWvmLCkRy1PGtH-26" value="" style="endArrow=none;html=1;rounded=0;entryX=0;entryY=0.5;entryDx=0;entryDy=0;" edge="1" parent="1" target="Jr7MtHPWvmLCkRy1PGtH-21">
          <mxGeometry relative="1" as="geometry">
            <mxPoint x="200" y="670" as="sourcePoint" />
            <mxPoint x="360" y="670" as="targetPoint" />
          </mxGeometry>
        </mxCell>
        <mxCell id="Jr7MtHPWvmLCkRy1PGtH-27" value="" style="endArrow=none;html=1;rounded=0;entryX=0;entryY=0.5;entryDx=0;entryDy=0;" edge="1" parent="1" target="Jr7MtHPWvmLCkRy1PGtH-22">
          <mxGeometry relative="1" as="geometry">
            <mxPoint x="200" y="670" as="sourcePoint" />
            <mxPoint x="370" y="670" as="targetPoint" />
          </mxGeometry>
        </mxCell>
        <mxCell id="Jr7MtHPWvmLCkRy1PGtH-28" value="" style="endArrow=none;html=1;rounded=0;" edge="1" parent="1">
          <mxGeometry relative="1" as="geometry">
            <mxPoint x="490" y="710" as="sourcePoint" />
            <mxPoint x="680" y="460" as="targetPoint" />
          </mxGeometry>
        </mxCell>
        <mxCell id="Jr7MtHPWvmLCkRy1PGtH-30" value="Bank" style="html=1;fontSize=25;" vertex="1" parent="1">
          <mxGeometry x="680" y="420" width="130" height="81" as="geometry" />
        </mxCell>
      </root>
    </mxGraphModel>
  </diagram>
</mxfile>
